ffmpeg started on 2026-01-15 at 20:43:33
Report written to "D:\Convert\FFMetrics\reports\psnr_report-6.txt"
Log level: 32
Command line:
ffmpeg -hide_banner -nostdin -r 24000/1001 -i "F:\\Convert\\files\\[DC] Make Heroine ga Oosugiru - 07_Telegram_HEVC(140).mkv" -r 24000/1001 -i "F:\\Convert\\files\\[DC] Make Heroine ga Oosugiru - 07_Telegram.mp4" -lavfi "[0:v]settb=AVTB,setpts=PTS-STARTPTS,format=pix_fmts=yuv420p10le,fps=24000/1001,scale=1920:1080:flags=lanczos:param0=3:out_range=limited:out_color_matrix=bt709:out_chroma_loc=left,setsar=1/1,setdar=(1920/1080)*(1/1),colorspace=format=yuv420p10:range=tv:primaries=bt709:trc=bt709:space=bt709:fast=0[main];[1:v]settb=AVTB,setpts=PTS-STARTPTS,format=pix_fmts=yuv420p,fps=24000/1001,scale=1920:1080:flags=lanczos:param0=3:out_range=limited:out_color_matrix=bt709:out_chroma_loc=left,setsar=1.000,setdar=1.778,colorspace=format=yuv420p:range=tv:primaries=bt709:trc=bt709:space=bt709:fast=0[ref];[main][ref]psnr=eof_action=endall:stats_file='D\\:/Convert/FFMetrics/logs/psnr_logfile-6.txt'" -f null -
Input #0, matroska,webm, from 'F:\Convert\files\[DC] Make Heroine ga Oosugiru - 07_Telegram_HEVC(140).mkv':
  Metadata:
    COMPATIBLE_BRANDS: isomiso2avc1mp41
    MAJOR_BRAND     : isom
    MINOR_VERSION   : 512
    ENCODER         : Lavf61.7.100
  Duration: 00:24:06.79, start: -0.021000, bitrate: 981 kb/s
  Stream #0:0: Video: hevc (Main 10), yuv420p10le(tv, bt709, progressive), 1920x1080 [SAR 1:1 DAR 16:9], 23.98 fps, 23.98 tbr, 1k tbn (default)
      Metadata:
        HANDLER_NAME    : VideoHandler
        VENDOR_ID       : [0][0][0][0]
        ENCODER         : Lavc61.19.100 libx265
        BPS             : 784788
        DURATION        : 00:24:06.569708333
        NUMBER_OF_FRAMES: 34683
        NUMBER_OF_BYTES : 141906422
        _STATISTICS_WRITING_APP: mkvpropedit v94.0 ('Initiate') 64-bit
        _STATISTICS_WRITING_DATE_UTC: 2026-01-15 17:38:37
        _STATISTICS_TAGS: BPS DURATION NUMBER_OF_FRAMES NUMBER_OF_BYTES
  Stream #0:1: Audio: aac (LC), 48000 Hz, stereo, fltp (default)
      Metadata:
        HANDLER_NAME    : SoundHandler
        VENDOR_ID       : [0][0][0][0]
        ENCODER         : Lavc61.19.100 aac
        BPS             : 193194
        DURATION        : 00:24:06.784000000
        NUMBER_OF_FRAMES: 67819
        NUMBER_OF_BYTES : 34938755
        _STATISTICS_WRITING_APP: mkvpropedit v94.0 ('Initiate') 64-bit
        _STATISTICS_WRITING_DATE_UTC: 2026-01-15 17:38:37
        _STATISTICS_TAGS: BPS DURATION NUMBER_OF_FRAMES NUMBER_OF_BYTES
Input #1, mov,mp4,m4a,3gp,3g2,mj2, from 'F:\Convert\files\[DC] Make Heroine ga Oosugiru - 07_Telegram.mp4':
  Metadata:
    major_brand     : isom
    minor_version   : 512
    compatible_brands: isomiso2avc1mp41
    encoder         : Lavf60.16.100
  Duration: 00:24:06.74, start: 0.000000, bitrate: 3764 kb/s
  Stream #1:0[0x1](und): Video: h264 (High) (avc1 / 0x31637661), yuv420p(tv, bt709, progressive), 1920x1080 [SAR 1:1 DAR 16:9], 3616 kb/s, 23.98 fps, 23.98 tbr, 24k tbn (default)
      Metadata:
        handler_name    : VideoHandler
        vendor_id       : [0][0][0][0]
        encoder         : Lavc60.31.102 h264_qsv
  Stream #1:1[0x2](und): Audio: aac (HE-AACv2) (mp4a / 0x6134706D), 48000 Hz, stereo, fltp, 144 kb/s (default)
      Metadata:
        handler_name    : SoundHandler
        vendor_id       : [0][0][0][0]
Stream mapping:
  Stream #0:0 (hevc) -> settb:default
  Stream #1:0 (h264) -> settb:default
  psnr:default -> Stream #0:0 (wrapped_avframe)
  Stream #0:1 -> #0:1 (aac (native) -> pcm_s16le (native))
Output #0, null, to 'pipe:':
  Metadata:
    COMPATIBLE_BRANDS: isomiso2avc1mp41
    MAJOR_BRAND     : isom
    MINOR_VERSION   : 512
    encoder         : Lavf61.7.100
  Stream #0:0: Video: wrapped_avframe, yuv420p10le(tv, bt709, progressive), 1920x1080 [SAR 1:1 DAR 16:9], q=2-31, 200 kb/s, 23.98 fps, 23.98 tbn
      Metadata:
        encoder         : Lavc61.19.100 wrapped_avframe
  Stream #0:1: Audio: pcm_s16le, 48000 Hz, stereo, s16, 1536 kb/s (default)
      Metadata:
        HANDLER_NAME    : SoundHandler
        VENDOR_ID       : [0][0][0][0]
        _STATISTICS_TAGS: BPS DURATION NUMBER_OF_FRAMES NUMBER_OF_BYTES
        BPS             : 193194
        DURATION        : 00:24:06.784000000
        NUMBER_OF_FRAMES: 67819
        NUMBER_OF_BYTES : 34938755
        _STATISTICS_WRITING_APP: mkvpropedit v94.0 ('Initiate') 64-bit
        _STATISTICS_WRITING_DATE_UTC: 2026-01-15 17:38:37
        encoder         : Lavc61.19.100 pcm_s16le
frame=  119 fps=0.0 q=-0.0 size=N/A time=00:00:04.96 bitrate=N/A speed=9.78x    frame=  318 fps=312 q=-0.0 size=N/A time=00:00:13.26 bitrate=N/A speed=  13x    frame=  520 fps=336 q=-0.0 size=N/A time=00:00:21.68 bitrate=N/A speed=  14x    frame=  720 fps=350 q=-0.0 size=N/A time=00:00:30.03 bitrate=N/A speed=14.6x    frame=  898 fps=349 q=-0.0 size=N/A time=00:00:37.45 bitrate=N/A speed=14.6x    frame= 1049 fps=340 q=-0.0 size=N/A time=00:00:43.75 bitrate=N/A speed=14.2x    frame= 1215 fps=337 q=-0.0 size=N/A time=00:00:50.67 bitrate=N/A speed=  14x    frame= 1385 fps=336 q=-0.0 size=N/A time=00:00:57.76 bitrate=N/A speed=  14x    frame= 1532 fps=331 q=-0.0 size=N/A time=00:01:03.89 bitrate=N/A speed=13.8x    frame= 1674 fps=325 q=-0.0 size=N/A time=00:01:09.81 bitrate=N/A speed=13.6x    frame= 1847 fps=326 q=-0.0 size=N/A time=00:01:17.03 bitrate=N/A speed=13.6x    frame= 2021 fps=327 q=-0.0 size=N/A time=00:01:24.29 bitrate=N/A speed=13.6x    frame= 2122 fps=317 q=-0.0 size=N/A time=00:01:28.50 bitrate=N/A speed=13.2x    frame= 2281 fps=316 q=-0.0 size=N/A time=00:01:35.13 bitrate=N/A speed=13.2x    frame= 2430 fps=314 q=-0.0 size=N/A time=00:01:41.35 bitrate=N/A speed=13.1x    frame= 2567 fps=311 q=-0.0 size=N/A time=00:01:47.06 bitrate=N/A speed=  13x    frame= 2743 fps=313 q=-0.0 size=N/A time=00:01:54.40 bitrate=N/A speed=13.1x    frame= 2919 fps=315 q=-0.0 size=N/A time=00:02:01.74 bitrate=N/A speed=13.1x    frame= 3118 fps=318 q=-0.0 size=N/A time=00:02:10.04 bitrate=N/A speed=13.3x    frame= 3298 fps=320 q=-0.0 size=N/A time=00:02:17.55 bitrate=N/A speed=13.3x    frame= 3496 fps=323 q=-0.0 size=N/A time=00:02:25.81 bitrate=N/A speed=13.5x    frame= 3697 fps=326 q=-0.0 size=N/A time=00:02:34.19 bitrate=N/A speed=13.6x    frame= 3902 fps=329 q=-0.0 size=N/A time=00:02:42.74 bitrate=N/A speed=13.7x    frame= 4098 fps=331 q=-0.0 size=N/A time=00:02:50.92 bitrate=N/A speed=13.8x    frame= 4295 fps=333 q=-0.0 size=N/A time=00:02:59.13 bitrate=N/A speed=13.9x    frame= 4502 fps=336 q=-0.0 size=N/A time=00:03:07.77 bitrate=N/A speed=  14x    frame= 4699 fps=338 q=-0.0 size=N/A time=00:03:15.98 bitrate=N/A speed=14.1x    frame= 4862 fps=337 q=-0.0 size=N/A time=00:03:22.78 bitrate=N/A speed=  14x    frame= 5039 fps=337 q=-0.0 size=N/A time=00:03:30.16 bitrate=N/A speed=14.1x    frame= 5221 fps=337 q=-0.0 size=N/A time=00:03:37.75 bitrate=N/A speed=14.1x    frame= 5413 fps=338 q=-0.0 size=N/A time=00:03:45.76 bitrate=N/A speed=14.1x    frame= 5603 fps=339 q=-0.0 size=N/A time=00:03:53.69 bitrate=N/A speed=14.2x    frame= 5797 fps=341 q=-0.0 size=N/A time=00:04:01.78 bitrate=N/A speed=14.2x    frame= 5995 fps=342 q=-0.0 size=N/A time=00:04:10.04 bitrate=N/A speed=14.2x    frame= 6188 fps=343 q=-0.0 size=N/A time=00:04:18.09 bitrate=N/A speed=14.3x    frame= 6385 fps=344 q=-0.0 size=N/A time=00:04:26.30 bitrate=N/A speed=14.3x    frame= 6579 fps=345 q=-0.0 size=N/A time=00:04:34.39 bitrate=N/A speed=14.4x    frame= 6783 fps=346 q=-0.0 size=N/A time=00:04:42.90 bitrate=N/A speed=14.4x    frame= 6983 fps=347 q=-0.0 size=N/A time=00:04:51.24 bitrate=N/A speed=14.5x    frame= 7163 fps=347 q=-0.0 size=N/A time=00:04:58.75 bitrate=N/A speed=14.5x    frame= 7357 fps=348 q=-0.0 size=N/A time=00:05:06.84 bitrate=N/A speed=14.5x    frame= 7554 fps=349 q=-0.0 size=N/A time=00:05:15.06 bitrate=N/A speed=14.5x    frame= 7739 fps=349 q=-0.0 size=N/A time=00:05:22.78 bitrate=N/A speed=14.6x    frame= 7923 fps=349 q=-0.0 size=N/A time=00:05:30.45 bitrate=N/A speed=14.6x    frame= 8111 fps=349 q=-0.0 size=N/A time=00:05:38.29 bitrate=N/A speed=14.6x    frame= 8302 fps=350 q=-0.0 size=N/A time=00:05:46.26 bitrate=N/A speed=14.6x    frame= 8486 fps=350 q=-0.0 size=N/A time=00:05:53.93 bitrate=N/A speed=14.6x    frame= 8675 fps=350 q=-0.0 size=N/A time=00:06:01.81 bitrate=N/A speed=14.6x    frame= 8864 fps=351 q=-0.0 size=N/A time=00:06:09.70 bitrate=N/A speed=14.6x    frame= 9049 fps=351 q=-0.0 size=N/A time=00:06:17.41 bitrate=N/A speed=14.6x    frame= 9238 fps=351 q=-0.0 size=N/A time=00:06:25.30 bitrate=N/A speed=14.6x    frame= 9428 fps=352 q=-0.0 size=N/A time=00:06:33.22 bitrate=N/A speed=14.7x    frame= 9615 fps=352 q=-0.0 size=N/A time=00:06:41.02 bitrate=N/A speed=14.7x    frame= 9813 fps=352 q=-0.0 size=N/A time=00:06:49.28 bitrate=N/A speed=14.7x    frame=10013 fps=353 q=-0.0 size=N/A time=00:06:57.62 bitrate=N/A speed=14.7x    frame=10197 fps=353 q=-0.0 size=N/A time=00:07:05.29 bitrate=N/A speed=14.7x    frame=10389 fps=353 q=-0.0 size=N/A time=00:07:13.30 bitrate=N/A speed=14.7x    frame=10581 fps=354 q=-0.0 size=N/A time=00:07:21.31 bitrate=N/A speed=14.7x    frame=10769 fps=354 q=-0.0 size=N/A time=00:07:29.15 bitrate=N/A speed=14.8x    frame=10957 fps=354 q=-0.0 size=N/A time=00:07:36.99 bitrate=N/A speed=14.8x    frame=11145 fps=354 q=-0.0 size=N/A time=00:07:44.83 bitrate=N/A speed=14.8x    frame=11340 fps=355 q=-0.0 size=N/A time=00:07:52.97 bitrate=N/A speed=14.8x    frame=11530 fps=355 q=-0.0 size=N/A time=00:08:00.89 bitrate=N/A speed=14.8x    frame=11724 fps=355 q=-0.0 size=N/A time=00:08:08.98 bitrate=N/A speed=14.8x    frame=11915 fps=355 q=-0.0 size=N/A time=00:08:16.95 bitrate=N/A speed=14.8x    frame=12117 fps=356 q=-0.0 size=N/A time=00:08:25.37 bitrate=N/A speed=14.8x    frame=12310 fps=356 q=-0.0 size=N/A time=00:08:33.42 bitrate=N/A speed=14.9x    frame=12502 fps=357 q=-0.0 size=N/A time=00:08:41.43 bitrate=N/A speed=14.9x    frame=12702 fps=357 q=-0.0 size=N/A time=00:08:49.77 bitrate=N/A speed=14.9x    frame=12897 fps=357 q=-0.0 size=N/A time=00:08:57.91 bitrate=N/A speed=14.9x    frame=13085 fps=357 q=-0.0 size=N/A time=00:09:05.75 bitrate=N/A speed=14.9x    frame=13277 fps=358 q=-0.0 size=N/A time=00:09:13.76 bitrate=N/A speed=14.9x    frame=13467 fps=358 q=-0.0 size=N/A time=00:09:21.68 bitrate=N/A speed=14.9x    frame=13662 fps=358 q=-0.0 size=N/A time=00:09:29.81 bitrate=N/A speed=14.9x    frame=13862 fps=358 q=-0.0 size=N/A time=00:09:38.16 bitrate=N/A speed=14.9x    frame=14052 fps=358 q=-0.0 size=N/A time=00:09:46.08 bitrate=N/A speed=14.9x    frame=14231 fps=358 q=-0.0 size=N/A time=00:09:53.55 bitrate=N/A speed=14.9x    frame=14417 fps=358 q=-0.0 size=N/A time=00:10:01.30 bitrate=N/A speed=14.9x    frame=14603 fps=358 q=-0.0 size=N/A time=00:10:09.06 bitrate=N/A speed=14.9x    frame=14799 fps=359 q=-0.0 size=N/A time=00:10:17.24 bitrate=N/A speed=  15x    frame=14983 fps=359 q=-0.0 size=N/A time=00:10:24.91 bitrate=N/A speed=  15x    frame=15152 fps=358 q=-0.0 size=N/A time=00:10:31.96 bitrate=N/A speed=14.9x    frame=15344 fps=358 q=-0.0 size=N/A time=00:10:39.97 bitrate=N/A speed=14.9x    frame=15539 fps=359 q=-0.0 size=N/A time=00:10:48.10 bitrate=N/A speed=  15x    frame=15726 fps=359 q=-0.0 size=N/A time=00:10:55.90 bitrate=N/A speed=  15x    frame=15928 fps=359 q=-0.0 size=N/A time=00:11:04.33 bitrate=N/A speed=  15x    frame=16126 fps=359 q=-0.0 size=N/A time=00:11:12.58 bitrate=N/A speed=  15x    frame=16318 fps=359 q=-0.0 size=N/A time=00:11:20.59 bitrate=N/A speed=  15x    frame=16506 fps=360 q=-0.0 size=N/A time=00:11:28.43 bitrate=N/A speed=  15x    frame=16701 fps=360 q=-0.0 size=N/A time=00:11:36.57 bitrate=N/A speed=  15x    frame=16898 fps=360 q=-0.0 size=N/A time=00:11:44.78 bitrate=N/A speed=  15x    frame=17082 fps=360 q=-0.0 size=N/A time=00:11:52.46 bitrate=N/A speed=  15x    frame=17287 fps=360 q=-0.0 size=N/A time=00:12:01.01 bitrate=N/A speed=  15x    frame=17475 fps=360 q=-0.0 size=N/A time=00:12:08.85 bitrate=N/A speed=  15x    frame=17656 fps=360 q=-0.0 size=N/A time=00:12:16.40 bitrate=N/A speed=  15x    frame=17846 fps=360 q=-0.0 size=N/A time=00:12:24.32 bitrate=N/A speed=  15x    frame=18045 fps=361 q=-0.0 size=N/A time=00:12:32.62 bitrate=N/A speed=  15x    frame=18230 fps=361 q=-0.0 size=N/A time=00:12:40.34 bitrate=N/A speed=  15x    frame=18412 fps=361 q=-0.0 size=N/A time=00:12:47.93 bitrate=N/A speed=  15x    frame=18612 fps=361 q=-0.0 size=N/A time=00:12:56.27 bitrate=N/A speed=  15x    frame=18805 fps=361 q=-0.0 size=N/A time=00:13:04.32 bitrate=N/A speed=15.1x    frame=18990 fps=361 q=-0.0 size=N/A time=00:13:12.04 bitrate=N/A speed=15.1x    frame=19194 fps=361 q=-0.0 size=N/A time=00:13:20.54 bitrate=N/A speed=15.1x    frame=19393 fps=361 q=-0.0 size=N/A time=00:13:28.84 bitrate=N/A speed=15.1x    frame=19585 fps=362 q=-0.0 size=N/A time=00:13:36.85 bitrate=N/A speed=15.1x    frame=19777 fps=362 q=-0.0 size=N/A time=00:13:44.86 bitrate=N/A speed=15.1x    frame=19972 fps=362 q=-0.0 size=N/A time=00:13:52.99 bitrate=N/A speed=15.1x    frame=20173 fps=362 q=-0.0 size=N/A time=00:14:01.38 bitrate=N/A speed=15.1x    frame=20366 fps=362 q=-0.0 size=N/A time=00:14:09.43 bitrate=N/A speed=15.1x    frame=20549 fps=362 q=-0.0 size=N/A time=00:14:17.06 bitrate=N/A speed=15.1x    frame=20732 fps=362 q=-0.0 size=N/A time=00:14:24.69 bitrate=N/A speed=15.1x    frame=20912 fps=362 q=-0.0 size=N/A time=00:14:32.20 bitrate=N/A speed=15.1x    frame=21092 fps=362 q=-0.0 size=N/A time=00:14:39.71 bitrate=N/A speed=15.1x    frame=21283 fps=362 q=-0.0 size=N/A time=00:14:47.67 bitrate=N/A speed=15.1x    frame=21477 fps=362 q=-0.0 size=N/A time=00:14:55.76 bitrate=N/A speed=15.1x    frame=21676 fps=362 q=-0.0 size=N/A time=00:15:04.06 bitrate=N/A speed=15.1x    frame=21858 fps=362 q=-0.0 size=N/A time=00:15:11.66 bitrate=N/A speed=15.1x    frame=22058 fps=362 q=-0.0 size=N/A time=00:15:20.00 bitrate=N/A speed=15.1x    frame=22253 fps=363 q=-0.0 size=N/A time=00:15:28.13 bitrate=N/A speed=15.1x    frame=22455 fps=363 q=-0.0 size=N/A time=00:15:36.56 bitrate=N/A speed=15.1x    frame=22645 fps=363 q=-0.0 size=N/A time=00:15:44.48 bitrate=N/A speed=15.1x    frame=22835 fps=363 q=-0.0 size=N/A time=00:15:52.40 bitrate=N/A speed=15.1x    frame=23023 fps=363 q=-0.0 size=N/A time=00:16:00.25 bitrate=N/A speed=15.1x    frame=23222 fps=363 q=-0.0 size=N/A time=00:16:08.55 bitrate=N/A speed=15.1x    frame=23407 fps=363 q=-0.0 size=N/A time=00:16:16.26 bitrate=N/A speed=15.1x    frame=23590 fps=363 q=-0.0 size=N/A time=00:16:23.89 bitrate=N/A speed=15.1x    frame=23777 fps=363 q=-0.0 size=N/A time=00:16:31.69 bitrate=N/A speed=15.1x    frame=23982 fps=363 q=-0.0 size=N/A time=00:16:40.24 bitrate=N/A speed=15.1x    frame=24167 fps=363 q=-0.0 size=N/A time=00:16:47.96 bitrate=N/A speed=15.1x    frame=24362 fps=363 q=-0.0 size=N/A time=00:16:56.09 bitrate=N/A speed=15.2x    frame=24547 fps=363 q=-0.0 size=N/A time=00:17:03.81 bitrate=N/A speed=15.2x    frame=24747 fps=363 q=-0.0 size=N/A time=00:17:12.15 bitrate=N/A speed=15.2x    frame=24931 fps=363 q=-0.0 size=N/A time=00:17:19.83 bitrate=N/A speed=15.2x    frame=25124 fps=363 q=-0.0 size=N/A time=00:17:27.88 bitrate=N/A speed=15.2x    frame=25315 fps=364 q=-0.0 size=N/A time=00:17:35.84 bitrate=N/A speed=15.2x    frame=25510 fps=364 q=-0.0 size=N/A time=00:17:43.97 bitrate=N/A speed=15.2x    frame=25697 fps=364 q=-0.0 size=N/A time=00:17:51.77 bitrate=N/A speed=15.2x    frame=25892 fps=364 q=-0.0 size=N/A time=00:17:59.91 bitrate=N/A speed=15.2x    frame=26075 fps=364 q=-0.0 size=N/A time=00:18:07.54 bitrate=N/A speed=15.2x    frame=26269 fps=364 q=-0.0 size=N/A time=00:18:15.63 bitrate=N/A speed=15.2x    frame=26459 fps=364 q=-0.0 size=N/A time=00:18:23.56 bitrate=N/A speed=15.2x    frame=26642 fps=364 q=-0.0 size=N/A time=00:18:31.19 bitrate=N/A speed=15.2x    frame=26841 fps=364 q=-0.0 size=N/A time=00:18:39.49 bitrate=N/A speed=15.2x    frame=27003 fps=364 q=-0.0 size=N/A time=00:18:46.25 bitrate=N/A speed=15.2x    frame=27172 fps=363 q=-0.0 size=N/A time=00:18:53.29 bitrate=N/A speed=15.2x    frame=27350 fps=363 q=-0.0 size=N/A time=00:19:00.72 bitrate=N/A speed=15.1x    frame=27533 fps=363 q=-0.0 size=N/A time=00:19:08.35 bitrate=N/A speed=15.1x    frame=27726 fps=363 q=-0.0 size=N/A time=00:19:16.40 bitrate=N/A speed=15.1x    frame=27916 fps=363 q=-0.0 size=N/A time=00:19:24.32 bitrate=N/A speed=15.1x    frame=28102 fps=363 q=-0.0 size=N/A time=00:19:32.08 bitrate=N/A speed=15.1x    frame=28294 fps=363 q=-0.0 size=N/A time=00:19:40.09 bitrate=N/A speed=15.2x    frame=28493 fps=363 q=-0.0 size=N/A time=00:19:48.39 bitrate=N/A speed=15.2x    frame=28686 fps=363 q=-0.0 size=N/A time=00:19:56.44 bitrate=N/A speed=15.2x    frame=28856 fps=363 q=-0.0 size=N/A time=00:20:03.53 bitrate=N/A speed=15.2x    frame=29029 fps=363 q=-0.0 size=N/A time=00:20:10.75 bitrate=N/A speed=15.1x    frame=29208 fps=363 q=-0.0 size=N/A time=00:20:18.21 bitrate=N/A speed=15.1x    frame=29390 fps=363 q=-0.0 size=N/A time=00:20:25.80 bitrate=N/A speed=15.1x    frame=29566 fps=363 q=-0.0 size=N/A time=00:20:33.14 bitrate=N/A speed=15.1x    frame=29743 fps=363 q=-0.0 size=N/A time=00:20:40.53 bitrate=N/A speed=15.1x    frame=29911 fps=362 q=-0.0 size=N/A time=00:20:47.53 bitrate=N/A speed=15.1x    frame=30075 fps=362 q=-0.0 size=N/A time=00:20:54.37 bitrate=N/A speed=15.1x    frame=30268 fps=362 q=-0.0 size=N/A time=00:21:02.42 bitrate=N/A speed=15.1x    frame=30459 fps=362 q=-0.0 size=N/A time=00:21:10.39 bitrate=N/A speed=15.1x    frame=30654 fps=362 q=-0.0 size=N/A time=00:21:18.52 bitrate=N/A speed=15.1x    frame=30843 fps=362 q=-0.0 size=N/A time=00:21:26.41 bitrate=N/A speed=15.1x    frame=31040 fps=363 q=-0.0 size=N/A time=00:21:34.62 bitrate=N/A speed=15.1x    frame=31232 fps=363 q=-0.0 size=N/A time=00:21:42.63 bitrate=N/A speed=15.1x    frame=31420 fps=363 q=-0.0 size=N/A time=00:21:50.47 bitrate=N/A speed=15.1x    frame=31613 fps=363 q=-0.0 size=N/A time=00:21:58.52 bitrate=N/A speed=15.1x    frame=31800 fps=363 q=-0.0 size=N/A time=00:22:06.32 bitrate=N/A speed=15.1x    frame=31976 fps=363 q=-0.0 size=N/A time=00:22:13.66 bitrate=N/A speed=15.1x    frame=32169 fps=363 q=-0.0 size=N/A time=00:22:21.71 bitrate=N/A speed=15.1x    frame=32359 fps=363 q=-0.0 size=N/A time=00:22:29.63 bitrate=N/A speed=15.1x    frame=32558 fps=363 q=-0.0 size=N/A time=00:22:37.93 bitrate=N/A speed=15.1x    frame=32712 fps=362 q=-0.0 size=N/A time=00:22:44.36 bitrate=N/A speed=15.1x    frame=32868 fps=362 q=-0.0 size=N/A time=00:22:50.86 bitrate=N/A speed=15.1x    frame=33056 fps=362 q=-0.0 size=N/A time=00:22:58.71 bitrate=N/A speed=15.1x    frame=33239 fps=362 q=-0.0 size=N/A time=00:23:06.34 bitrate=N/A speed=15.1x    frame=33415 fps=362 q=-0.0 size=N/A time=00:23:13.68 bitrate=N/A speed=15.1x    frame=33570 fps=362 q=-0.0 size=N/A time=00:23:20.14 bitrate=N/A speed=15.1x    frame=33724 fps=361 q=-0.0 size=N/A time=00:23:26.57 bitrate=N/A speed=15.1x    frame=33844 fps=361 q=-0.0 size=N/A time=00:23:31.57 bitrate=N/A speed=  15x    frame=34000 fps=360 q=-0.0 size=N/A time=00:23:38.08 bitrate=N/A speed=  15x    frame=34162 fps=360 q=-0.0 size=N/A time=00:23:44.84 bitrate=N/A speed=  15x    frame=34312 fps=360 q=-0.0 size=N/A time=00:23:51.09 bitrate=N/A speed=  15x    frame=34435 fps=359 q=-0.0 size=N/A time=00:23:56.22 bitrate=N/A speed=  15x    frame=34615 fps=359 q=-0.0 size=N/A time=00:24:03.73 bitrate=N/A speed=  15x    [Parsed_psnr_16 @ 000001f4a6fe1200] PSNR y:48.942794 u:50.332590 v:50.380906 average:49.364929 min:38.014538 max:inf
[out#0/null @ 000001f49f498a00] video:14903KiB audio:271276KiB subtitle:0KiB other streams:0KiB global headers:0KiB muxing overhead: unknown
frame=34683 fps=359 q=-0.0 Lsize=N/A time=00:24:06.57 bitrate=N/A speed=  15x    
